# xmcd CD database file
#
# Track frame offsets:
#	150
#	18002
#	36475
#
# Disc length: 721 seconds
#
# Revision: 2
# Processed by: cddbd v1.5PL3 Copyright (c) Steve Scherf et al.
# Submitted via: CDex 1.50beta9
#
DISCID=1a02cf03
DTITLE=シェキドル - 全体的に大好きです。
DYEAR=2001
DGENRE=JPop
TTITLE0=全体的に大好きです。
TTITLE1=恋は猛暑！
TTITLE2=全体的に大好きです。(Instrumental)
EXTD=YEAR: 2001
EXTT0=
EXTT1=
EXTT2=
PLAYORDER=
